<?xml version="1.0" encoding="utf-8"?>
<!-- Generator: Adobe Illustrator 26.1.0, SVG Export Plug-In . SVG Version: 6.00 Build 0)  -->
<svg version="1.1" id="Слой_1" xmlns="http://www.w3.org/2000/svg" xmlns:xlink="http://www.w3.org/1999/xlink" x="0px" y="0px"
	 viewBox="0 0 1024 1024" style="enable-background:new 0 0 1024 1024;" xml:space="preserve">
<style type="text/css">
	.st0{fill:#AFD170;}
	.st1{fill:#FFE378;}
	.st2{fill:#FFB54C;}
	.st3{fill:#FF776B;}
	.st4{fill:#F71E77;}
	.st5{fill:#1265C1;}
	.st6{fill:#0BA8ED;}
	.st7{fill:#44C5FF;}
</style>
<g>
	<path class="st0" d="M512,0v511.8L150,149.8C242.6,57.3,370.7,0,512,0z"/>
	<path class="st1" d="M871.6,147.7L512,511.8V0C652.1,0,779.2,56.4,871.6,147.7z"/>
	<path class="st2" d="M1023.9,511.8H512l359.6-364.1C965.6,240.4,1023.8,369.3,1023.9,511.8z"/>
	<path class="st3" d="M1023.9,511.8v0.3c0,141.2-57.3,269.2-149.8,361.9L512,511.9v-0.1H1023.9z"/>
	<path class="st4" d="M874.1,874c-92.6,92.7-220.7,150-362.1,150V511.9L874.1,874z"/>
	<path class="st5" d="M512,511.9V1024c-140.2,0-267.4-56.5-359.8-147.8L512,511.9z"/>
	<path class="st6" d="M512,511.8L512,511.8L152.1,876.2C58.2,783.4,0,654.5,0,512v-0.3H512z"/>
	<path class="st7" d="M512,511.8H0c0.1-141.3,57.4-269.3,150-361.9L512,511.8z"/>
</g>
</svg>
