<?xml version="1.0" encoding="utf-8"?>
<!-- Generator: Adobe Illustrator 26.1.0, SVG Export Plug-In . SVG Version: 6.00 Build 0)  -->
<svg version="1.1" id="Слой_1" xmlns="http://www.w3.org/2000/svg" xmlns:xlink="http://www.w3.org/1999/xlink" x="0px" y="0px"
	 viewBox="0 0 1024 1024" style="enable-background:new 0 0 1024 1024;" xml:space="preserve">
<style type="text/css">
	.st0{fill:#F3C430;}
	.st1{fill:#D8A903;}
	.st2{fill:#FFD600;}
</style>
<g>
	<path class="st0" d="M0,494.8c0,0,241.9,3.7,318.7-332.8c30,96.7,101.2,318,320.6,332.8C513.7,519,386.2,580.3,319.7,831.3
		C305.6,738.4,215.6,519,0,494.8z"/>
	<path class="st1" d="M542.8,250.5c0,0,182,2.8,239.9-250.5c22.6,72.8,76.2,239.3,241.3,250.5c-94.6,18.2-190.5,64.4-240.6,253.3
		C772.8,433.9,705.1,268.7,542.8,250.5z"/>
	<path class="st2" d="M508.7,830.3c0,0,139.2,2.1,183.5-191.6c17.3,55.7,58.3,183,184.5,191.6c-72.3,13.9-145.7,49.2-184,193.7
		C684.6,970.5,632.8,844.2,508.7,830.3z"/>
</g>
</svg>
