<?xml version="1.0" encoding="utf-8"?>
<!-- Generator: Adobe Illustrator 26.1.0, SVG Export Plug-In . SVG Version: 6.00 Build 0)  -->
<svg version="1.1" id="Слой_1" xmlns="http://www.w3.org/2000/svg" xmlns:xlink="http://www.w3.org/1999/xlink" x="0px" y="0px"
	 viewBox="0 0 1024 1024" style="enable-background:new 0 0 1024 1024;" xml:space="preserve">
<style type="text/css">
	.st0{fill:#8FA4FF;}
	.st1{fill:#FFFFFF;}
</style>
<g>
	<circle class="st0" cx="512" cy="512" r="512"/>
	<path class="st1" d="M740.2,554h-458c-23.9,0-43.2-19.3-43.2-43.2v0c0-23.9,19.3-43.2,43.2-43.2h458c23.9,0,43.2,19.3,43.2,43.2v0
		C783.4,534.7,764.1,554,740.2,554z"/>
	<path class="st1" d="M468,739.8v-458c0-23.9,19.3-43.2,43.2-43.2h0c23.9,0,43.2,19.3,43.2,43.2v458c0,23.9-19.3,43.2-43.2,43.2h0
		C487.4,783,468,763.6,468,739.8z"/>
</g>
</svg>
