<?xml version="1.0" encoding="utf-8"?>
<!-- Generator: Adobe Illustrator 26.1.0, SVG Export Plug-In . SVG Version: 6.00 Build 0)  -->
<svg version="1.1" id="Слой_1" xmlns="http://www.w3.org/2000/svg" xmlns:xlink="http://www.w3.org/1999/xlink" x="0px" y="0px"
	 viewBox="0 0 1024 1024" style="enable-background:new 0 0 1024 1024;" xml:space="preserve">
<style type="text/css">
	.st0{fill:#9C86FD;}
</style>
<path class="st0" d="M1024,512c0,289.3-239.9,522.5-531.7,511.6c-265.4-9.9-481.7-226-491.9-491.4C-10.8,240.2,222.5,0,512,0
	c0.1,0,0.3,0,0.4,0c13.5,0,19,17.1,8.3,25.5c-78.2,61.4-128.5,156.9-128.5,264.1c0,185.3,150.2,335.5,335.6,335.5
	c110.8,0,209.2-53.8,270.3-136.7c8-10.9,25.3-5.9,25.7,7.6C1023.9,501.3,1024,506.6,1024,512z"/>
</svg>
